<?xml version="1.0" encoding="iso-8859-1"?>
<!-- Generator: Adobe Illustrator 19.0.0, SVG Export Plug-In . SVG Version: 6.00 Build 0)  -->
<svg version="1.1" id="&#x56FE;&#x5C42;_1" xmlns="http://www.w3.org/2000/svg" xmlns:xlink="http://www.w3.org/1999/xlink" x="0px"
	 y="0px" viewBox="-205 297 200 200" style="enable-background:new -205 297 200 200;" xml:space="preserve">
<g>
	<path d="M-18.406,364.278"/>
	<path d="M-13.181,361.337l0.001-0.002l-0.193-0.192c-3.552-3.489-8.205-5.674-13.273-6.267v-7.579h-0.011v-25.283
		c0-12.17-9.823-22.071-21.898-22.071h-111.204c-12.075,0-21.899,9.901-21.898,22.071v32.936c-4.753,0.676-9.14,2.768-12.521,6.006
		l-0.058,0.056c-0.007,0.007-0.016,0.011-0.023,0.018c-4.142,4.008-6.242,8.625-6.242,13.722v99.818
		c0,11.264,9.901,20.43,22.072,20.43h148.851c12.171,0.001,22.074-9.165,22.069-20.431v-99.78
		C-7.272,367.721-12.077,362.452-13.181,361.337z M-121.837,349.769c2.641-2.657,6.236-4.146,9.982-4.136
		c2.645-0.007,5.238,0.734,7.48,2.138c5.437-3.328,12.669-2.643,17.363,2.043c5.372,5.373,5.489,14.086,0.335,19.608
		c-0.086,0.11-0.181,0.217-0.282,0.318l-14.908,14.908c-0.67,0.672-1.579,1.05-2.528,1.049c-0.949,0.001-1.859-0.377-2.529-1.049
		l-14.908-14.908c-0.042-0.043-0.082-0.084-0.124-0.126c-2.584-2.632-4.027-6.176-4.017-9.864
		C-125.983,356.004-124.494,352.41-121.837,349.769z M-91.518,451.987c-7.041,7.02-11.592,6.37-17.785,0.534
		c-3.611-3.403-81.678-82.694-83.361-84.377c1.208-1.951,4.289-7.227,13.664-8.789c0,0-2.813,2.625,1.246,7.434
		c19.605,20.284,68.375,71.19,71.912,74.727c4.374,4.374,7.122,2.438,10.616-1.056c2.767-2.767,66.581-66.013,66.581-66.013
		l2-13.478c3.017,0.511,10.645,1.283,14.108,9.657C-13.202,371.29-88.39,448.859-91.518,451.987z M-28.645,374.445
		c5.979-6.739,5.645-9.445,2-13.478"/>
</g>
</svg>
