<?xml version="1.0" encoding="iso-8859-1"?>
<!-- Generator: Adobe Illustrator 19.0.0, SVG Export Plug-In . SVG Version: 6.00 Build 0)  -->
<svg version="1.1" id="&#x56FE;&#x5C42;_1" xmlns="http://www.w3.org/2000/svg" xmlns:xlink="http://www.w3.org/1999/xlink" x="0px"
	 y="0px" viewBox="-205 297 200 200" style="enable-background:new -205 297 200 200;" xml:space="preserve">
<path d="M-35.933,397c-1.295,0-3.022-0.432-4.317-0.432V371.1c0-35.828-28.922-64.75-64.75-64.75s-64.75,28.922-64.75,64.75v25.468
	c-1.295,0-3.022,0.432-4.317,0.432c-9.497,0-17.267-7.77-17.267-17.267c0-8.202,5.612-15.108,13.382-16.835
	c4.317-36.692,35.397-65.182,72.952-65.182s68.635,28.49,72.952,65.182c7.77,1.727,13.382,8.633,13.382,16.835
	C-18.667,389.23-26.437,397-35.933,397z M-105,427.217c-31.08,0-56.117-25.037-56.117-56.117s25.037-56.117,56.117-56.117
	s56.117,25.037,56.117,56.117S-73.92,427.217-105,427.217L-105,427.217z M-150.757,416.857
	c11.655,11.655,27.627,18.993,45.757,18.993c17.698,0,33.67-6.907,45.325-18.562c12.95,9.928,23.31,23.31,28.49,39.713
	c3.453,9.928,4.748,18.13,3.885,27.627c-0.432,6.475-6.475,11.655-12.95,11.655h-129.5c-6.475,0-12.518-5.18-12.95-11.655v-5.612
	C-182.7,453.548-170.182,430.67-150.757,416.857z"/>
</svg>
