<?xml version="1.0" encoding="iso-8859-1"?>
<!-- Generator: Adobe Illustrator 19.0.0, SVG Export Plug-In . SVG Version: 6.00 Build 0)  -->
<svg version="1.1" id="&#x56FE;&#x5C42;_1" xmlns="http://www.w3.org/2000/svg" xmlns:xlink="http://www.w3.org/1999/xlink" x="0px"
	 y="0px" viewBox="-205 297 200 200" style="enable-background:new -205 297 200 200;" xml:space="preserve">
<path d="M-130.184,348.214h47.602c14.741,0,26.038-31.72,26.038-31.72c0-9.52-0.921-16.65-17.352-17.22
	c-16.321-0.57-20.335,11.319-32.093,11.319c-12.109,0-18.053-9.279-32.904-11.319s-17.352,7.7-17.352,17.22
	c0,0,11.297,31.72,26.038,31.72C-130.206,348.214-130.184,348.214-130.184,348.214z M-79.928,358.064h-50.234
	c-55.608,0-69.318,108.387-69.318,108.387c0,14.28,11.648,28.539,26.038,28.539h136.904c14.39,0,26.038-14.28,26.038-28.539
	C-10.632,466.451-24.32,358.064-79.928,358.064z M-74.225,441.421c3.312-0.088,6.076,2.545,6.142,5.857
	c0.088,3.312-2.545,6.076-5.857,6.142h-24.941v15.86c-0.088,3.334-2.852,5.989-6.208,5.901c-3.225-0.088-5.835-2.676-5.901-5.901
	v-15.86h-24.788c-3.312,0.088-6.076-2.545-6.142-5.857c-0.088-3.312,2.545-6.076,5.857-6.142h25.051v-7.59h-24.766
	c-3.312,0.088-6.076-2.545-6.142-5.857c-0.088-3.312,2.545-6.076,5.857-6.142h17.066l-17.242-30.36
	c-1.667-2.874-0.702-6.581,2.172-8.27c2.896-1.667,6.603-0.702,8.336,2.15l20.664,36.239h1.031l20.664-36.239
	c1.733-2.874,5.44-3.839,8.336-2.15c2.874,1.667,3.861,5.374,2.172,8.248v0.022l-17.132,30.25h15.75
	c3.312-0.088,6.076,2.545,6.142,5.857c0.088,3.312-2.545,6.076-5.857,6.142h-24.941v7.59h24.656L-74.225,441.421L-74.225,441.421z"
	/>
</svg>
