<?xml version="1.0" encoding="iso-8859-1"?>
<!-- Generator: Adobe Illustrator 19.0.0, SVG Export Plug-In . SVG Version: 6.00 Build 0)  -->
<svg version="1.1" id="&#x56FE;&#x5C42;_1" xmlns="http://www.w3.org/2000/svg" xmlns:xlink="http://www.w3.org/1999/xlink" x="0px"
	 y="0px" viewBox="-205 297 200 200" style="enable-background:new -205 297 200 200;" xml:space="preserve">
<path d="M-140.378,362.374c-8.792,0-15.63,6.838-15.63,15.63s6.838,15.63,15.63,15.63c8.792,0,15.63-6.838,15.63-15.63
	S-132.075,362.374-140.378,362.374z"/>
<path d="M-65.649,330.627c-28.817,14.164-47.866,12.699-77.66,0c-52.262,0-82.056,138.225-42.982,138.225
	c33.213,0,37.609-40.54,82.544-40.54c36.632,0,58.123,40.051,82.544,40.051C16.896,468.363-22.667,330.627-65.649,330.627
	L-65.649,330.627z M-140.378,403.891c-14.164,0-25.398-11.234-25.398-25.398c0-14.164,11.234-25.398,25.398-25.398
	c14.164,0,25.398,11.234,25.398,25.398C-114.98,392.657-126.702,403.891-140.378,403.891z M-82.255,379.958
	c-3.907-0.977-5.861-4.884-4.396-8.792c0.977-3.419,4.884-5.861,8.792-4.396c3.907,0.977,5.861,4.884,4.396,8.792
	C-74.44,378.981-78.348,380.935-82.255,379.958z M-65.16,390.703c-0.977,3.419-4.884,5.861-8.792,4.396
	c-3.907-0.977-5.861-4.884-4.396-8.792c0.977-3.419,4.884-5.861,8.792-4.396C-66.137,383.377-63.695,387.284-65.16,390.703z
	 M-64.183,374.097c-3.907-0.977-5.861-4.884-4.396-8.792c0.977-3.419,4.884-5.861,8.792-4.396c3.907,0.977,5.861,4.884,4.396,8.792
	C-56.857,373.12-60.764,375.074-64.183,374.097z M-46.6,385.819c-0.977,3.419-4.884,5.861-8.792,4.396
	c-3.907-0.977-5.861-4.884-4.396-8.792c0.977-3.419,4.884-5.861,8.792-4.396C-47.577,378.004-45.623,381.912-46.6,385.819z"/>
</svg>
