<?xml version="1.0" encoding="iso-8859-1"?>
<!-- Generator: Adobe Illustrator 19.0.0, SVG Export Plug-In . SVG Version: 6.00 Build 0)  -->
<svg version="1.1" id="&#x56FE;&#x5C42;_1" xmlns="http://www.w3.org/2000/svg" xmlns:xlink="http://www.w3.org/1999/xlink" x="0px"
	 y="0px" viewBox="-205 298.08 200 196.92" style="enable-background:new -205 298.08 200 196.92;" xml:space="preserve">
<g>
	<path d="M-27.581,399.023l0.576,3.749c2.688,1.436,5.226,3.112,7.595,4.993l1.642-0.466l2.418-8.276l-5.227-5.439L-27.581,399.023z
		"/>
	<path d="M-21.692,359.487c19.869-9.555,9.869-24.555-14.742-22.7l-44.451,5.247c-1.898,0.224-3.785-0.5-5.048-1.938l-29.522-33.642
		c-3.817-4.35-9.662-6.121-15.251-4.624c-5.59,1.498-9.764,5.954-10.895,11.629l-8.746,43.896c-0.374,1.876-1.646,3.447-3.403,4.202
		l-41.119,17.681c-5.316,2.286-8.807,7.296-9.11,13.075c-0.303,5.779,2.645,11.127,7.693,13.955l39.046,21.882
		c1.668,0.935,2.769,2.63,2.945,4.535l4.109,39.57c0.531,5.762,13.111,22.675,27.111,5.852
		C-82.231,368.334-21.692,359.487-21.692,359.487z M-111.975,370.054c0.359-0.509,0.569-1.242,0.629-2.201
		c0-0.239,0.284-0.509,0.854-0.809c0.599-0.299,1.535-0.838,2.808-1.617c1.272-0.778,2.224-1.377,2.853-1.797
		c1.108-0.748,2.156-1.123,3.145-1.123c1.317,0,2.44,0.629,3.369,1.887c0.928,1.258,1.393,2.299,1.393,3.122
		c0,0.824-0.33,1.588-0.988,2.291c-0.659,0.704-1.924,1.662-3.796,2.875c-1.872,1.213-3.646,2.217-5.323,3.01
		c-1.677,0.794-2.718,1.19-3.122,1.19s-0.674-0.074-0.809-0.225c-0.135-0.149-0.27-0.562-0.404-1.235s-0.202-1.13-0.202-1.37
		c0-0.239,0.03-0.509,0.09-0.809c0.06-0.299,0.09-0.584,0.09-0.854c0-0.658-0.112-1.123-0.337-1.393s-0.337-0.464-0.337-0.584
		C-112.065,370.294-112.035,370.174-111.975,370.054z M-111.526,380.296c0.809-0.389,2.029-1.056,3.661-1.999
		c1.632-0.943,3.024-1.774,4.178-2.493c1.153-0.719,2.134-1.078,2.942-1.078c1.168,0,2.231,0.592,3.189,1.774
		c0.958,1.184,1.438,2.284,1.438,3.302c0,0.779-0.3,1.513-0.898,2.201c-0.599,0.689-2.014,1.745-4.245,3.167
		c-2.231,1.423-4.283,2.583-6.154,3.481c-1.872,0.898-3.234,1.348-4.088,1.348s-1.28-0.344-1.28-1.033
		c0-0.209,0.045-0.449,0.135-0.719c0.419-1.168,0.629-2.32,0.629-3.459c0-1.138-0.12-1.932-0.359-2.381
		c-0.24-0.449-0.359-0.815-0.359-1.101C-112.738,381.023-112.334,380.686-111.526,380.296z M-137.176,365.697
		c0.568-0.688,1.632-1.078,3.189-1.168c3.504-0.27,6.386-0.531,8.647-0.786c2.261-0.254,4.844-0.651,7.749-1.19
		c0.509-0.09,0.973-0.135,1.393-0.135c2.366,0,3.549,1.468,3.549,4.402c0,1.558-0.39,2.336-1.168,2.336
		c-0.24,0-0.711-0.119-1.415-0.359c-0.704-0.239-1.43-0.359-2.179-0.359c-0.749,0-1.386,0.232-1.909,0.696
		c-0.524,0.465-0.981,1.221-1.37,2.269c-0.33,0.809-0.584,1.213-0.764,1.213c-0.3,0-0.51-0.209-0.629-0.629
		c-0.33-1.107-0.741-1.894-1.235-2.358c-0.494-0.464-1.116-0.696-1.864-0.696c-0.749,0-1.729,0.202-2.942,0.606
		c-1.213,0.404-1.999,0.921-2.358,1.55c-0.12,0.21-0.232,0.314-0.337,0.314c-0.105,0-0.247-0.104-0.427-0.314
		c-0.359-0.449-0.988-0.674-1.887-0.674s-2.082,0.359-3.549,1.078c-0.27,0.12-0.479,0.18-0.629,0.18
		c-0.479,0-0.719-0.823-0.719-2.471C-138.029,367.554-137.745,366.386-137.176,365.697z M-112.963,372.659
		c0,0.689-0.442,2.082-1.325,4.178c-0.884,2.097-1.565,3.407-2.044,3.931c-0.479,0.524-1.049,0.786-1.707,0.786
		c-0.659,0-1.482-0.27-2.471-0.809s-1.482-1.168-1.482-1.887c0-0.389,0.135-0.868,0.404-1.438c1.018-2.186,1.767-3.968,2.246-5.346
		c0.479-1.377,1.242-2.066,2.291-2.066c0.659,0,1.505,0.225,2.538,0.674S-112.963,371.791-112.963,372.659z M-122.397,377.803
		c0,0.674-0.562,1.213-1.685,1.617s-1.909,0.606-2.358,0.606c-0.809,0-1.333-0.554-1.572-1.662c-0.24-1.107-0.502-2.193-0.786-3.257
		c-0.285-1.063-0.427-1.819-0.427-2.269c0-0.898,0.494-1.512,1.482-1.842c0.988-0.329,1.736-0.494,2.246-0.494
		c0.568,0,1.025,0.195,1.37,0.584c0.344,0.39,0.719,1.438,1.123,3.145S-122.397,377.129-122.397,377.803z M-129.764,379.78
		c0,0.914-0.51,1.58-1.527,1.999c-1.019,0.42-1.872,0.629-2.561,0.629c-0.689,0-1.168-0.509-1.438-1.527
		c-0.6-2.216-1.056-3.684-1.37-4.402s-0.472-1.272-0.472-1.662c0-0.898,0.464-1.595,1.393-2.089
		c0.928-0.494,1.752-0.741,2.471-0.741c0.479,0,0.883,0.18,1.213,0.539c0.329,0.359,0.793,1.431,1.393,3.212
		C-130.064,377.519-129.764,378.867-129.764,379.78z M-120.824,401.769c0,2.096-1.363,3.145-4.088,3.145
		c-1.318,0-2.329-0.27-3.032-0.809c-0.704-0.539-1.056-1.318-1.056-2.336v-2.381c0-0.33-0.061-0.494-0.18-0.494
		c-0.12,0-0.27,0.09-0.449,0.27c-1.617,1.527-2.995,2.291-4.133,2.291c-1.139,0-2.127-0.517-2.965-1.55
		c-0.839-1.033-1.258-2.029-1.258-2.987c0-1.497,0.973-2.845,2.92-4.043c1.197-0.719,2.148-1.43,2.853-2.134
		c0.703-0.703,1.056-1.138,1.056-1.303c0-0.164-0.21-0.247-0.629-0.247h-2.92c-0.988,0-1.768-0.344-2.336-1.033
		c-0.569-0.688-0.854-1.55-0.854-2.583s0.142-1.834,0.427-2.403c0.284-0.568,0.576-0.854,0.876-0.854
		c0.149,0,0.254,0.075,0.314,0.225c0.449,0.929,1.175,1.393,2.179,1.393c1.003,0,2.073-0.247,3.212-0.741
		c1.138-0.494,1.887-1.07,2.246-1.729c0.06-0.149,0.164-0.225,0.314-0.225c0.149,0,0.337,0.053,0.562,0.157
		c0.225,0.105,0.606,0.157,1.146,0.157s1.205-0.135,1.999-0.404c0.793-0.27,1.272-0.404,1.438-0.404
		c0.164,0,0.366,0.143,0.606,0.427c0.239,0.285,0.891,0.682,1.954,1.19c1.063,0.51,1.983,0.764,2.763,0.764
		c0.778,0,1.527-0.314,2.246-0.943c0.18-0.149,0.427-0.225,0.741-0.225s0.621,0.225,0.921,0.674
		c0.299,0.449,0.449,1.063,0.449,1.842c0,1.438-0.202,2.546-0.606,3.324c-0.404,0.779-0.884,1.168-1.438,1.168
		c-0.554,0-1.011-0.209-1.37-0.629c-1.229-1.377-2.479-2.066-3.751-2.066c-1.273,0-2.479,0.532-3.616,1.595
		c-1.139,1.063-1.707,1.999-1.707,2.808s0.284,1.655,0.854,2.538c0.568,0.884,1.385,1.992,2.448,3.324
		c1.063,1.332,1.64,2.118,1.729,2.358c0.09,0.239,0.135,0.629,0.135,1.168V401.769z M-119.477,397.861
		c-0.3-0.18-0.719-0.6-1.258-1.258l-1.932-2.471c-0.749-0.988-1.229-1.669-1.438-2.044c-0.21-0.374-0.314-0.801-0.314-1.28
		c0-0.479,0.389-1.101,1.168-1.864c0.778-0.764,1.572-1.146,2.381-1.146c1.048,0,2.051,0.569,3.01,1.707
		c0.958,1.139,1.729,2.142,2.313,3.01c0.584,0.869,0.876,1.647,0.876,2.336c0,0.689-0.472,1.408-1.415,2.156
		s-1.67,1.123-2.179,1.123C-118.774,398.13-119.178,398.04-119.477,397.861z M-96.095,393.571c-0.255,0.494-0.696,1.071-1.325,1.729
		c-0.629,0.659-1.782,1.603-3.459,2.83c-1.677,1.228-3.384,2.351-5.121,3.369c-1.737,1.018-3.092,1.714-4.065,2.089
		c-0.974,0.374-1.745,0.562-2.313,0.562c-1.318,0-2.411-0.562-3.279-1.685c-0.869-1.123-1.303-1.917-1.303-2.381
		c0-0.465,0.254-0.861,0.764-1.19c1.827-1.198,2.845-2.365,3.055-3.504c0.06-0.329,0.18-0.584,0.359-0.764s0.719-0.501,1.617-0.966
		c0.898-0.464,1.864-1.033,2.897-1.707s2.643-1.819,4.829-3.437c1.198-0.868,2.246-1.303,3.145-1.303
		c1.018,0,2.036,0.562,3.055,1.685c1.018,1.123,1.527,2.179,1.527,3.167C-95.713,392.576-95.84,393.076-96.095,393.571z"/>
	<path d="M-13.34,413.441c3.333-4.18,5.33-9.472,5.33-15.233c0-13.511-10.953-24.465-24.463-24.465
		c-13.191,0-23.936,10.441-24.439,23.508c1.652-0.203,3.33-0.325,5.03-0.365c0.656-9.747,8.483-17.528,18.254-18.1l1.752,3.855
		l7.36,2.165l2.551-2.975c5.383,3.461,8.949,9.503,8.949,16.379c0,4.378-1.446,8.417-3.886,11.668
		C-15.656,411.006-14.468,412.195-13.34,413.441z"/>
	<path d="M-49.139,396.896c3.476,0.106,6.862,0.562,10.126,1.337l2.67-2.335l-2.446-6.524h-7.34L-49.139,396.896z"/>
	<polygon points="-29.57,438.969 -42.021,448.638 -39.125,467.486 -24.576,463.35 -20.278,448.639 	"/>
	<polygon points="-74.993,431.484 -80.794,445.979 -69.2,453.228 -57.598,443.082 -61.947,431.484 	"/>
	<path d="M-50.719,403.699c-24.02,0-43.487,19.472-43.487,43.489c0,24.015,19.468,43.486,43.487,43.486
		c24.015,0,43.487-19.471,43.487-43.486C-7.232,423.171-26.704,403.699-50.719,403.699z M-50.698,481.781l-0.441-7.466
		l-17.032-4.035l-4.206,3.883c-7.885-6.34-12.931-16.065-12.931-26.97c0-18.415,14.389-33.467,32.537-34.529l3.115,6.853
		l13.084,3.849l4.535-5.289c9.57,6.153,15.908,16.894,15.908,29.116C-16.13,466.288-31.604,481.769-50.698,481.781z"/>
</g>
</svg>
