<?xml version="1.0" encoding="iso-8859-1"?>
<!-- Generator: Adobe Illustrator 19.0.0, SVG Export Plug-In . SVG Version: 6.00 Build 0)  -->
<svg version="1.1" id="&#x56FE;&#x5C42;_1" xmlns="http://www.w3.org/2000/svg" xmlns:xlink="http://www.w3.org/1999/xlink" x="0px"
	 y="0px" viewBox="-205 297 200 200" style="enable-background:new -205 297 200 200;" xml:space="preserve">
<path d="M-162.981,345.991c0,18.814,15.252,34.066,34.066,34.066s34.066-15.252,34.066-34.066c0-18.814-15.252-34.066-34.066-34.066
	S-162.981,327.177-162.981,345.991z"/>
<path d="M-202.293,453c0-40.771,33.053-73.811,73.811-73.811S-54.671,412.242-54.671,453"/>
<path d="M-73.301,384.514c0,11.393,9.236,20.629,20.629,20.629s20.629-9.236,20.629-20.629s-9.236-20.629-20.629-20.629
	S-73.301,373.121-73.301,384.514z"/>
<path d="M-49.254,453c0.237-24.363-8.217-38.483-17.749-45.951c-3.813-2.985,9.48-2.432,14.594-2.432
	c24.678,0,44.702,23.692,44.702,48.384"/>
</svg>
