<?xml version="1.0" encoding="iso-8859-1"?>
<!-- Generator: Adobe Illustrator 19.0.0, SVG Export Plug-In . SVG Version: 6.00 Build 0)  -->
<svg version="1.1" id="&#x56FE;&#x5C42;_1" xmlns="http://www.w3.org/2000/svg" xmlns:xlink="http://www.w3.org/1999/xlink" x="0px"
	 y="0px" viewBox="-205 297 200 200" style="enable-background:new -205 297 200 200;" xml:space="preserve">
<path d="M-153.271,380.077h-7.559v-24.16c0-4.095-3.277-7.45-7.277-7.45h-6.031c-4,0-7.277,3.354-7.277,7.45v24.16h-7.559
	c-7.197,0-13.027,5.968-13.027,13.335v57.643c0,7.367,5.83,13.335,13.027,13.335h7.559v24.16c0,4.095,3.277,7.45,7.277,7.45h6.031
	c4,0,7.277-3.354,7.277-7.45V464.37h7.559c7.197,0,13.027-5.968,13.027-13.335v-57.622
	C-140.244,386.045-146.074,380.077-153.271,380.077z M-85.65,330.61h-9.308v-24.16c0-4.095-3.277-7.45-7.277-7.45h-6.031
	c-4,0-7.277,3.354-7.277,7.45v24.16h-9.308c-6.232,0-11.278,5.165-11.278,11.545v61.203c0,6.38,5.046,11.545,11.278,11.545h9.308
	v24.16c0,4.095,3.277,7.45,7.277,7.45h6.031c4,0,7.277-3.354,7.277-7.45v-24.16h9.308c6.232,0,11.278-5.165,11.278-11.545v-61.203
	C-74.372,335.775-79.418,330.61-85.65,330.61z M-21.527,380.077h-7.559v-24.16c0-4.095-3.277-7.45-7.277-7.45h-6.031
	c-4,0-7.277,3.354-7.277,7.45v24.16h-7.559c-7.197,0-13.027,5.968-13.027,13.335v57.643c0,7.367,5.83,13.335,13.027,13.335h7.559
	v24.16c0,4.095,3.277,7.45,7.277,7.45h6.031c4,0,7.277-3.354,7.277-7.45V464.37h7.559c7.197,0,13.027-5.968,13.027-13.335v-57.622
	C-8.5,386.045-14.33,380.077-21.527,380.077z"/>
</svg>
