<?xml version="1.0" encoding="iso-8859-1"?>
<!-- Generator: Adobe Illustrator 19.0.0, SVG Export Plug-In . SVG Version: 6.00 Build 0)  -->
<svg version="1.1" id="&#x56FE;&#x5C42;_1" xmlns="http://www.w3.org/2000/svg" xmlns:xlink="http://www.w3.org/1999/xlink" x="0px"
	 y="0px" viewBox="-205 297 200 200" style="enable-background:new -205 297 200 200;" xml:space="preserve">
<path d="M-133.431,300.909h-52.932c-9.697,0-17.637,7.94-17.637,17.659V371.5c0,9.697,7.94,17.637,17.637,17.637h52.932
	c9.697,0,17.637-7.94,17.637-17.637v-52.932C-115.773,308.849-123.712,300.909-133.431,300.909z M-133.431,406.773h-52.932
	c-9.697,0-17.637,7.94-17.637,17.659v52.932c0,9.697,7.94,17.637,17.637,17.637h52.932c9.697,0,17.637-7.94,17.637-17.637v-52.932
	C-115.773,414.712-123.712,406.773-133.431,406.773z M-27.568,406.773H-80.5c-9.697,0-17.637,7.94-17.637,17.637v52.932
	c0,9.697,7.94,17.637,17.637,17.637h52.932c9.697,0,17.637-7.94,17.637-17.637v-52.932
	C-9.909,414.712-17.849,406.773-27.568,406.773z M-11.154,335.587l-31.67-31.67c-6.872-6.872-18.081-6.872-24.954,0l-31.67,31.67
	c-6.872,6.872-6.872,18.081,0,24.954l31.67,31.67c6.872,6.872,18.081,6.872,24.954,0l31.67-31.67
	C-4.282,353.669-4.282,342.437-11.154,335.587L-11.154,335.587z"/>
</svg>
