<?xml version="1.0" standalone="no"?><!DOCTYPE svg PUBLIC "-//W3C//DTD SVG 1.1//EN" "http://www.w3.org/Graphics/SVG/1.1/DTD/svg11.dtd"><svg t="1552621780819" class="icon" style="" viewBox="0 0 1024 1024" version="1.1" xmlns="http://www.w3.org/2000/svg" p-id="2535" xmlns:xlink="http://www.w3.org/1999/xlink" width="200" height="200"><defs><style type="text/css"></style></defs><path d="M902.314792 562.469765l110.855639 84.071364c11.478975 9.700542 13.90411 20.856165 7.383191 33.682438l-105.897585 177.843272c-6.574812 12.826272-17.245408 16.059786-32.011789 9.64665l-130.418399-50.496711a498.985106 498.985106 0 0 1-88.652176 50.496711l-19.724435 134.621967c-1.616757 14.389137-10.670596 21.610652-27.053734 21.610652H407.479362c-14.766381 0-23.766328-7.221515-27.053734-21.610652L360.701193 867.659597a405.428767 405.428767 0 0 1-88.598285-50.496711l-130.47229 50.496711c-14.766381 4.850271-25.436977 1.616757-32.011789-9.592758l-105.897585-177.843272c-6.52092-12.880164-4.095784-24.089679 7.383191-33.682438l110.801747-84.125256c-1.616757-19.239408-2.425136-36.107573-2.425136-50.496711 0-14.443029 0.808379-31.257302 2.425136-50.496711L11.104435 377.404979c-11.478975-9.700542-13.90411-20.856165-7.383191-33.682438l105.897585-177.843271c8.191569-12.826272 18.862165-16.059786 32.011789-9.646651l130.418399 50.496711a498.985106 498.985106 0 0 1 88.652176-50.496711L380.425628 21.610652C383.659142 7.221515 392.712982 0 407.479362 0h209.316142c16.383138 0 25.436977 7.221515 27.053734 21.610652L663.573673 156.286511c31.149518 12.826272 60.68228 29.640545 88.598284 50.496711l130.472291-50.496711c14.766381-4.850271 25.436977-1.616757 32.011789 9.592759l105.897585 177.843271c6.52092 12.880164 4.095784 24.089679-7.383191 33.682438L902.314792 461.476343c3.233514 19.239408 4.904163 36.107573 4.904163 50.496711 0 14.443029-1.616757 31.257302-4.904163 50.496711zM506.963811 683.888216c50.119467 0 93.179096-17.622651 129.286669-52.867954 36.107573-35.245303 54.16136-77.71212 54.16136-127.400453 0-49.688332-18.053787-92.15515-54.16136-127.400452A178.597758 178.597758 0 0 0 506.909919 323.351403c-50.065575 0-93.125204 17.622651-129.232778 52.867954C341.569568 411.46466 323.515782 453.931477 323.515782 503.619809c0 49.688332 18.053787 92.15515 54.161359 127.400453 36.107573 35.245303 79.221094 52.867954 129.232778 52.867954z" p-id="2536"></path></svg>